HIERARCHY
ROOT Hips
{
	OFFSET -0.179506 -22.333345 2.821913
	CHANNELS 6 Xposition Yposition Zposition Zrotation Yrotation Xrotation 
	JOINT LeftUpLeg
	{
		OFFSET 6.951974 -9.140623 -0.681533
		CHANNELS 3 Zrotation Yrotation Xrotation
		JOINT LeftLeg
		{
			OFFSET 3.427654 -37.519855 -0.449580
			CHANNELS 3 Zrotation Yrotation Xrotation
			JOINT LeftFoot
			{
				OFFSET -1.359570 -39.796059 -4.369333
				CHANNELS 3 Zrotation Yrotation Xrotation
				JOINT LeftToe
				{
					OFFSET 2.635814 -5.579078 11.928840
					CHANNELS 3 Zrotation Yrotation Xrotation
					End Site
					{
						OFFSET 0.000000 0.000000 0.000000
					}
				}
			}
		}
	}
	JOINT RightUpLeg
	{
		OFFSET -6.767048 -9.052170 -0.431982
		CHANNELS 3 Zrotation Yrotation Xrotation
		JOINT RightLeg
		{
			OFFSET -3.829005 -38.256897 -0.885003
			CHANNELS 3 Zrotation Yrotation Xrotation
			JOINT RightFoot
			{
				OFFSET 1.577377 -39.841461 -4.231180
				CHANNELS 3 Zrotation Yrotation Xrotation
				JOINT RightToe
				{
					OFFSET -2.537174 -4.814398 12.334795
					CHANNELS 3 Zrotation Yrotation Xrotation
					End Site
					{
						OFFSET 0.000000 0.000000 0.000000
					}
				}
			}
		}
	}
	JOINT Spine
	{
		OFFSET -0.253288 10.896323 -2.669631
		CHANNELS 3 Zrotation Yrotation Xrotation
		JOINT Spine1
		{
			OFFSET 0.548704 13.518043 0.109247
			CHANNELS 3 Zrotation Yrotation Xrotation
			JOINT Spine2
			{
				OFFSET 0.145701 5.292222 2.542457
				CHANNELS 3 Zrotation Yrotation Xrotation
				JOINT Neck
				{
					OFFSET -0.277840 21.387037 -4.285703
					CHANNELS 3 Zrotation Yrotation Xrotation
					JOINT Head
					{
						OFFSET 0.515184 6.496960 5.134897
						CHANNELS 3 Zrotation Yrotation Xrotation
						End Site
						{
							OFFSET 0.000000 0.000000 0.000000
						}
					}
				}
				JOINT LeftShoulder
				{
					OFFSET 7.884473 12.174932 -3.408961
					CHANNELS 3 Zrotation Yrotation Xrotation
					JOINT LeftArm
					{
						OFFSET 9.097692 3.046888 -0.886815
						CHANNELS 3 Zrotation Yrotation Xrotation
						JOINT LeftForeArm
						{
							OFFSET 25.961220 -1.277207 -2.745643
							CHANNELS 3 Zrotation Yrotation Xrotation
							JOINT LeftHand
							{
								OFFSET 24.923361 0.898606 -0.117091
								CHANNELS 3 Zrotation Yrotation Xrotation
								End Site
								{
									OFFSET 0.000000 0.000000 0.000000
								}
							}
						}
					}
				}
				JOINT RightShoulder
				{
					OFFSET -8.175920 11.883285 -3.861528
					CHANNELS 3 Zrotation Yrotation Xrotation
					JOINT RightArm
					{
						OFFSET -9.601238 3.255117 -0.914307
						CHANNELS 3 Zrotation Yrotation Xrotation
						JOINT RightForeArm
						{
							OFFSET -25.374195 -1.332924 -2.140099
							CHANNELS 3 Zrotation Yrotation Xrotation
							JOINT RightHand
							{
								OFFSET -25.529810 0.777228 -0.555919
								CHANNELS 3 Zrotation Yrotation Xrotation
								End Site
								{
									OFFSET 0.000000 0.000000 0.000000
								}
							}
						}
					}
				}
			}
		}
	}
}
MOTION
Frames: 6
Frame Time: 0.033333
-31.976751 19.814409 94.328079 177.175584 2.170528 87.589031 1.977152 5.511976 6.285228 0.058457 -1.070537 0.879433 2.177220 9.631288 -8.688053 nan nan nan -1.184350 -6.111246 2.597121 3.414353 -6.133670 2.734468 7.145420 -3.571539 -6.181594 nan nan nan 1.614423 1.074468 11.285484 0.979291 -2.357756 -1.264214 1.475123 -0.279845 -0.882606 1.401618 -2.124762 -5.760469 3.513774 -4.273390 -4.579694 -20.628523 -0.495430 1.646480 -58.333101 -6.401011 7.830535 4.400995 -20.100041 5.848437 -7.553204 -8.600560 -12.471838 21.806182 3.044245 1.133019 60.619898 6.638752 11.527811 -8.501631 27.621517 -4.621622 7.149500 6.984969 -15.294874 
-31.912209 19.969343 94.250534 176.869117 2.198441 87.449638 1.870806 4.373714 6.838345 0.080446 -0.298235 0.461251 2.181630 10.306450 -8.205784 nan nan nan -0.989791 -5.670099 2.989355 3.300366 -5.914641 2.365666 6.881000 -3.880729 -6.271220 nan nan nan 1.866888 1.508945 11.091829 0.855384 -2.308452 -1.014198 1.349287 -0.423505 -0.815408 1.344701 -2.231133 -5.734778 3.515066 -4.312400 -4.618226 -20.773493 -0.651524 1.798053 -58.096856 -6.412083 7.912619 4.381740 -20.153097 5.610991 -7.611039 -8.635732 -12.666607 21.803676 3.014874 1.151829 60.559945 6.407628 11.672848 -8.347851 27.810282 -4.483086 7.256755 6.849699 -15.620490 
-31.893208 20.068510 94.201584 176.830979 2.071898 87.349507 1.515963 3.418941 7.265618 0.088015 -0.457517 0.081128 2.727781 10.892303 -12.173751 nan nan nan -1.062097 -5.439419 3.224620 3.212337 -5.655271 2.166229 7.553233 -4.278853 -6.487562 nan nan nan 1.935926 1.748703 11.224193 0.751937 -2.488181 -0.926068 1.210919 -0.300175 -1.058721 1.415679 -2.382384 -5.037299 3.497327 -4.430785 -5.464138 -20.517640 -0.887781 1.602604 -58.374048 -6.282553 8.092136 4.556948 -19.472632 5.576390 -8.409584 -10.265177 -13.717874 21.591158 2.785189 1.055271 60.836062 6.182466 11.598484 -8.207956 27.615591 -4.286959 7.627340 8.102744 -16.391664 
-31.880493 20.166431 94.132454 176.789650 2.080937 87.235912 1.530667 3.390185 7.594208 0.098819 -0.449654 -0.192484 2.539620 10.866586 -12.097370 nan nan nan -0.992430 -5.353477 3.634511 3.124875 -5.554869 1.720354 7.559232 -4.387438 -6.457661 nan nan nan 2.013172 1.659839 11.221003 0.680887 -2.564638 -0.873078 1.240847 -0.200150 -0.948569 1.357358 -2.375830 -5.015345 3.453059 -4.321875 -5.634097 -20.624246 -0.751519 1.410771 -58.483137 -6.213888 8.020636 4.746243 -19.363831 5.623959 -8.541343 -10.286922 -13.597785 21.420935 2.854371 1.122749 60.847691 6.144717 11.597173 -8.199481 27.618976 -4.183542 7.545612 8.144239 -16.270598 
-31.854305 20.270411 94.073532 176.762236 2.129012 87.096030 1.630641 3.507963 7.946586 0.133980 -0.467691 -0.401988 2.378613 10.781768 -12.187421 nan nan nan -0.880138 -5.493129 4.148297 3.025007 -5.488665 1.134956 7.647262 -4.399436 -6.231077 nan nan nan 2.066170 1.689638 11.091648 0.663280 -2.570407 -0.628609 1.314229 -0.221748 -0.838674 1.247864 -2.354262 -5.054154 3.407296 -4.257073 -5.745510 -20.762332 -0.720254 1.313248 -58.396827 -6.208806 7.938781 4.587136 -19.411365 5.752246 -8.549721 -10.272211 -13.293564 21.292349 2.905416 1.079566 60.807961 6.154525 11.524210 -8.078736 27.500989 -4.187271 7.546425 8.088502 -16.178203 
-31.802719 20.363287 94.037086 176.759364 2.165182 87.068710 1.693136 3.580960 8.176031 0.256357 -0.502006 -0.644405 2.239387 10.690486 -12.210420 nan nan nan -0.763695 -5.794744 4.533160 2.903047 -5.448798 0.512663 7.754281 -4.427255 -5.865463 nan nan nan 2.090687 1.876836 10.810766 0.671380 -2.515258 -0.333466 1.386153 -0.424422 -0.794515 1.085313 -2.391365 -5.010755 3.354892 -4.303932 -5.861501 -20.936690 -0.688167 1.332476 -57.943603 -6.175964 7.923806 3.940854 -19.783486 6.253501 -8.648133 -10.347369 -12.829910 21.268061 2.887386 0.999402 60.712528 6.138629 11.478926 -8.028220 27.322895 -4.154411 7.657274 7.985383 -15.949258 
